<?xml version="1.0" encoding="UTF-8" standalone="no"?><!DOCTYPE svg PUBLIC "-//W3C//DTD SVG 1.1//EN" "http://www.w3.org/Graphics/SVG/1.1/DTD/svg11.dtd"><svg width="100%" height="100%" viewBox="0 0 3071 571" version="1.1" xmlns="http://www.w3.org/2000/svg" xmlns:xlink="http://www.w3.org/1999/xlink" xml:space="preserve" xmlns:serif="http://www.serif.com/" style="fill-rule:evenodd;clip-rule:evenodd;stroke-linejoin:round;stroke-miterlimit:2;"><g><g><path d="M417.763,273.092c46.329,-24.384 75.587,-68.275 75.587,-125.167c0,-88.592 -73.15,-147.925 -215.383,-147.925l-277.967,0l-0,568.938l294.221,-0c149.55,-0 227.575,-56.896 227.575,-155.238c-0,-71.525 -40.638,-120.292 -104.034,-140.608Zm-156.05,-173.934c64.209,0 99.155,21.946 99.155,66.646c-0,44.704 -34.946,67.459 -99.155,67.459l-130.858,-0l0,-134.105l130.858,0Zm22.755,370.621l-153.613,0l0,-140.608l153.613,-0c68.275,-0 104.85,22.758 104.85,70.712c-0,48.763 -36.575,69.896 -104.85,69.896Z" style="fill-rule:nonzero;"/><path d="M1125.68,568.938l-127.604,-182.875c73.963,-31.696 117.038,-94.28 117.038,-179.621c-0,-127.605 -95.096,-206.442 -247.084,-206.442l-246.266,-0l-0,568.937l131.666,0l0,-158.491l121.105,-0l109.725,158.491l141.42,0Zm-143.862,-362.495c-0,61.77 -40.638,99.158 -121.1,99.158l-107.288,0l0,-198.317l107.288,0c80.462,0 121.1,36.575 121.1,99.159Z" style="fill-rule:nonzero;"/><path d="M1644.23,568.938l138.171,-0l-254.4,-568.938l-130.042,0l-253.583,568.938l134.921,-0l50.392,-121.917l264.15,-0l50.391,121.917Zm-272.279,-221.888l90.217,-217.821l90.216,217.821l-180.433,0Z" style="fill-rule:nonzero;"/><path d="M2233.48,0l0,345.425l-282.841,-345.425l-108.913,0l0,568.938l130.042,-0l-0,-345.426l283.658,345.426l108.096,-0l-0,-568.938l-130.042,0Z" style="fill-rule:nonzero;"/><path d="M2498.45,568.938l258.458,-0c186.125,-0 313.729,-112.163 313.729,-284.471c0,-172.305 -127.604,-284.467 -313.729,-284.467l-258.458,-0l-0,568.937Zm131.667,-108.1l-0,-352.737l120.291,0c112.975,0 186.938,67.458 186.938,176.367c-0,108.912 -73.963,176.371 -186.938,176.371l-120.291,-0Z" style="fill-rule:nonzero;"/></g></g></svg>